<?xml version="1.0" standalone="no"?>
<!DOCTYPE svg PUBLIC "-//W3C//DTD SVG 20010904//EN"
 "http://www.w3.org/TR/2001/REC-SVG-20010904/DTD/svg10.dtd">
<svg version="1.0" xmlns="http://www.w3.org/2000/svg"
 width="422.000000pt" height="422.000000pt" viewBox="0 0 422.000000 422.000000"
 preserveAspectRatio="xMidYMid meet">
<metadata>
Created by potrace 1.11, written by Peter Selinger 2001-2013
</metadata>
<g transform="translate(0.000000,422.000000) scale(0.100000,-0.100000)"
fill="#000000" stroke="none">
<path d="M1619 3237 c-103 -72 -826 -577 -1194 -833 -104 -73 -204 -143 -222
-156 -17 -13 -70 -50 -117 -82 l-85 -59 44 -31 c24 -17 186 -130 360 -251 173
-121 415 -290 538 -375 317 -222 339 -237 574 -401 l213 -148 25 37 c14 20 21
39 17 43 -4 3 -207 146 -452 316 -245 171 -470 328 -501 349 -31 21 -192 134
-357 249 l-302 210 27 20 c31 23 9 7 643 450 606 422 876 611 917 642 l32 23
-22 35 c-12 19 -25 34 -28 35 -4 0 -53 -33 -110 -73z"/>
<path d="M2430 3268 c-9 -32 -9 -42 1 -48 6 -5 91 -36 188 -69 97 -34 185 -66
196 -71 11 -5 112 -41 225 -80 230 -81 535 -189 685 -244 55 -21 124 -44 153
-53 28 -9 52 -19 52 -24 0 -4 -15 -12 -32 -18 -33 -10 -389 -136 -418 -148 -8
-3 -19 -7 -25 -9 -5 -1 -93 -32 -195 -69 -102 -36 -306 -109 -455 -162 -365
-129 -439 -156 -448 -163 -4 -4 192 -78 435 -164 244 -86 472 -168 508 -181
36 -13 193 -69 349 -125 157 -55 286 -102 288 -103 1 -2 -116 -45 -260 -96
-144 -52 -341 -122 -437 -156 -96 -35 -319 -114 -495 -176 -176 -62 -321 -114
-323 -115 -6 -4 21 -84 27 -84 4 0 58 18 121 41 63 22 189 67 280 99 91 32
192 68 225 80 107 38 805 287 970 345 88 31 161 58 163 59 1 2 -32 15 -75 30
-43 15 -100 36 -128 46 -27 11 -216 78 -420 150 -203 73 -469 167 -590 210
-121 43 -255 90 -297 105 -73 26 -95 41 -65 42 6 1 260 90 562 198 472 169
639 229 870 310 22 8 65 23 95 34 33 12 49 22 40 25 -93 34 -226 82 -270 96
-30 10 -73 25 -95 33 -39 16 -680 244 -880 313 -55 20 -118 42 -140 51 -22 8
-115 41 -206 73 l-166 58 -13 -40z"/>
</g>
</svg>
